<svg version="1.1" xmlns="http://www.w3.org/2000/svg" xmlns:xlink="http://www.w3.org/1999/xlink" width="123.32686" height="148.77199" viewBox="0,0,123.32686,148.77199"><g transform="translate(-178.33657,-105.64812)"><g data-paper-data="{&quot;isPaintingLayer&quot;:true}" fill-rule="nonzero" stroke-linejoin="miter" stroke-miterlimit="10" stroke-dasharray="" stroke-dashoffset="0" style="mix-blend-mode: normal"><g><path d="M185.34352,227.58996c-2.48309,-22.90589 -5.63531,-51.98363 -6.93319,-63.95659c-1.07324,-9.90033 9.76291,-23.37152 19.66324,-24.44474c12.55897,-1.36147 45.15132,-4.89463 68.36736,-7.41137c14.51315,-1.57333 26.75668,10.11546 27.87241,20.40731c1.30008,11.99267 4.73287,43.65885 7.17229,66.16195c1.74753,16.12033 -9.6526,27.82218 -22.49318,29.21418c-12.20801,1.32342 -40.13862,4.35124 -61.75117,6.69413c-16.08485,1.74367 -30.14792,-10.52366 -31.8977,-26.66487z" fill="#ffffff" stroke="#c49343" stroke-width="0" stroke-linecap="butt"/><path d="M191.95429,165.91569c0,0 20.07259,-57.888 37.31778,-60.26757c16.20373,-2.23587 50.83716,51.22845 50.83716,51.22845z" fill="#ffffff" stroke="#ffffff" stroke-width="5" stroke-linecap="round"/><path d="M203.83471,196.91314c-2.05784,-20.06929 12.54332,-38.00685 32.61261,-40.06469c20.06929,-2.05784 38.00685,12.54332 40.06469,32.6126c2.05784,20.06928 -12.54332,38.00685 -32.6126,40.06469c-20.06929,2.05784 -38.00685,-12.54332 -40.06469,-32.6126z" fill="#3b3b3b" stroke="none" stroke-width="0" stroke-linecap="butt"/><path d="M238.02685,172.25284l4.29306,41.86848" fill="none" stroke="#c99938" stroke-width="11.5" stroke-linecap="round"/></g></g></g></svg>