<svg version="1.1" xmlns="http://www.w3.org/2000/svg" xmlns:xlink="http://www.w3.org/1999/xlink" width="116.24519" height="83.5251" viewBox="0,0,116.24519,83.5251"><g transform="translate(-11.85908,-12.14503)"><g data-paper-data="{&quot;isPaintingLayer&quot;:true}" fill-rule="nonzero" stroke-linejoin="miter" stroke-miterlimit="10" stroke-dasharray="" stroke-dashoffset="0" style="mix-blend-mode: normal"><path d="M13.10908,94.42013v-81.0251h113.74519v81.0251z" fill="#ffffff" stroke="#4a4a4a" stroke-width="2.5" stroke-linecap="butt"/><g stroke-width="0"><path d="M23.16456,18.95569c0,-1.38332 1.01148,-2.50475 2.25917,-2.50475c1.24771,0 2.25917,1.12141 2.25917,2.50475c0,1.38332 -4.51835,1.38332 -4.51835,0z" fill="#6bd6c7" stroke="none" stroke-linecap="butt"/><path d="M23.18453,18.71532c0,0 1.61682,0 2.45562,0c0.75717,0 2.16095,0 2.16095,0" fill="none" stroke="#f1f1f1" stroke-linecap="round"/></g><path d="M97.28517,39.64923c0,0 -2.24464,-2.4954 -3.29394,-3.96087c-1.5026,-2.09855 -2.10773,-0.96347 -2.10773,-4.81685c0,-3.85338 5.06407,-6.52702 5.06407,-6.52702z" fill="#db8080" stroke="none" stroke-width="0" stroke-linecap="butt"/><path d="M55.64726,55.17753c0,2.23745 -4.16379,4.22726 -4.16379,4.22726l-0.29016,-7.29295l-3.49821,-0.28335c0,0 1.81255,-4.35105 3.86355,-4.35105c2.05099,0 4.08861,5.46263 4.08861,7.70008z" fill="#db8080" stroke="none" stroke-width="0" stroke-linecap="butt"/><path d="M97.36011,54.79333l-5.92328,0.25537l-0.56458,7.8827c0,0 -4.98889,-1.57192 -4.98889,-4.99024c0,-3.41832 3.8903,-7.53849 6.5628,-7.53849c2.6725,0 4.91395,4.39066 4.91395,4.39066z" fill="#db8080" stroke="none" stroke-width="0" stroke-linecap="butt"/><path d="M93.90912,87.01171h-14.17939c0,0 0.92347,-3.48858 4.839,-3.48858c2.07314,0 4.82177,-1.9922 6.94943,-0.4781c1.89084,1.34557 2.39096,3.96669 2.39096,3.96669z" fill="#64bf55" stroke="none" stroke-width="0" stroke-linecap="butt"/><path d="M114.35252,74.93772c2.49274,-0.51408 4.05103,-1.69011 4.05103,-1.69011l-0.60341,5.32706l-7.83682,-0.12754c0,0 1.2542,-2.86288 4.38919,-3.50941z" data-paper-data="{&quot;index&quot;:null}" fill="#64bf55" stroke="none" stroke-width="0" stroke-linecap="butt"/><path d="M35.27856,72.00622l-7.83682,0.19221l-0.60341,-8.0279c0,0 1.55829,1.77228 4.05103,2.547c3.13499,0.97432 4.38919,5.28869 4.38919,5.28869z" fill="#64bf55" stroke="none" stroke-width="0" stroke-linecap="butt"/><path d="M53.36148,22.25807c0,0 -0.03555,2.31107 -0.7579,3.15115c-1.06418,1.23762 -2.23176,2.16278 -3.24371,2.78809c-2.02808,1.2532 -3.5787,3.3131 -3.5787,3.3131l0.40899,-9.40687z" fill="#db8080" stroke="none" stroke-width="0" stroke-linecap="butt"/><path d="M29.41573,36.94986c0,0 -4.27694,-3.40438 -4.27694,-8.56293c0,-5.15855 -4.3885,-7.74556 -1.77814,-7.74556c1.43668,0 5.60053,-0.17697 5.60053,-0.17697z" fill="#db8080" stroke="none" stroke-width="0" stroke-linecap="butt"/><g fill="none" stroke="#4a4a4a" stroke-width="2.5" stroke-linecap="round"><path d="M13.13369,87.65878h91.82844h16.20502"/><path d="M42.59322,51.80097h8.32758v12.82897"/><path d="M62.39936,79.25946v-10.12814h9.00279"/><path d="M87.60717,21.41653h9.22786c0,0 0,5.72547 0,8.95426c0,3.80376 0,12.42736 0,12.42736"/><path d="M90.98321,70.25667v-15.30474h9.22786"/><path d="M45.06898,32.44495v-10.12814h9.00279"/><path d="M66.67568,35.821h8.55265v19.13093"/><path d="M21.43664,20.06611h7.65237v18.90585"/><path d="M35.61604,72.28229h-8.77772v-11.70362" data-paper-data="{&quot;index&quot;:null}"/><path d="M114.84057,52.91365v-19.13093h8.76565"/><path d="M118.44169,72.04457v6.75209h-10.12814" data-paper-data="{&quot;index&quot;:null}"/></g></g></g></svg>