<svg version="1.1" xmlns="http://www.w3.org/2000/svg" xmlns:xlink="http://www.w3.org/1999/xlink" width="490.5" height="372.5" viewBox="0,0,490.5,372.5"><g transform="translate(8.95611,6.125)"><g data-paper-data="{&quot;isPaintingLayer&quot;:true}" fill-rule="nonzero" stroke-linejoin="miter" stroke-miterlimit="10" stroke-dasharray="" stroke-dashoffset="0" style="mix-blend-mode: normal"><g><path d="M45.59377,83.3033c0,-7.04163 5.14873,-12.75 11.5,-12.75c6.35127,0 11.5,5.70837 11.5,12.75c0,7.04163 -23,7.04163 -23,0z" fill="#6bd6c7" stroke="none" stroke-width="0" stroke-linecap="butt"/><path d="M45.69533,82.07976c0,0 8.23019,0 12.5,0c3.85423,0 11,0 11,0" fill="none" stroke="#f1f1f1" stroke-width="6" stroke-linecap="round"/></g><path d="M150.60547,99.83023c3.48472,-8.23732 9.78439,-23.75047 17.58986,-23.75047c13.17311,0 8.52504,12.0082 6.00001,29.5c-4.5,31.17311 14.17311,33.5 -3.5,33.5c-17.67311,0 -24.49524,-28.83593 -20.08986,-39.24953z" fill="#db8080" stroke="none" stroke-width="0" stroke-linecap="butt"/><path d="M390.88454,343.2515c12.70255,0 23,2.05888 23,12c0,9.94112 -10.29745,9 -23,9c-12.70255,0 -23,0.94113 -23,-9c0,-9.94112 10.29745,-12 23,-12z" data-paper-data="{&quot;index&quot;:null}" fill="#64bf55" stroke="none" stroke-width="0" stroke-linecap="butt"/><path d="M356.59228,4.20125c-1.30281,10.30523 -13.116,30.75872 -34.87686,38.40088c-19.94975,7.00611 -48.74546,-9.15831 -65.12314,-13.35062c-27.34623,-7 -26.06672,-7.76111 -31,-27.05025c-1,-3.91 132,-5.91 131,2z" fill="#db8080" stroke="none" stroke-width="0" stroke-linecap="butt"/><path d="M316.65013,148.49472l36.63979,1.54983c0,0 16.12266,79.0248 -20.45863,32.69384c-9.87371,-12.50526 -16.18117,-34.24366 -16.18117,-34.24366z" fill="#db8080" stroke="none" stroke-width="0" stroke-linecap="butt"/><path d="M-3.20611,360.625v-361h479v361z" fill="none" stroke="#4a4a4a" stroke-width="11.5" stroke-linecap="butt"/><path d="M309.09376,147.75h45v132" fill="none" stroke="#4a4a4a" stroke-width="9" stroke-linecap="round"/><path d="M285.09376,256.75h-77" fill="none" stroke="#4a4a4a" stroke-width="9" stroke-linecap="round"/><path d="M390.59376,75.75h41" fill="none" stroke="#4a4a4a" stroke-width="9" stroke-linecap="round"/><path d="M203.09378,152.75l-29,-16v-67" fill="none" stroke="#4a4a4a" stroke-width="9" stroke-linecap="round"/><path d="M421.09376,277.25v-62.5l26.5,-15" fill="none" stroke="#4a4a4a" stroke-width="9" stroke-linecap="round"/><path d="M81.09376,65.75v22h-45" fill="none" stroke="#4a4a4a" stroke-width="9" stroke-linecap="round"/><path d="M115.62704,305.67724c-8.19181,0 4.94458,-20.36928 -0.13958,-25.47126c-4.43722,-4.45276 -28.6382,3.80992 -28.6382,-2.65662c0,-13.8759 8.93654,-27.26979 24.27778,-27.26979c7.24086,0 27.0666,18.77675 28.53092,31.80918c1.63814,14.57945 -15.93053,23.58848 -24.03092,23.58848z" fill="#db8080" stroke="none" stroke-width="0" stroke-linecap="butt"/><path d="M61.09227,283.01213l52.25715,-4v31.73938" fill="none" stroke="#4a4a4a" stroke-width="9" stroke-linecap="round"/><text transform="translate(242.93451,349.39) scale(0.28764,0.28764)" font-size="40" xml:space="preserve" fill="#ffffff" fill-rule="nonzero" stroke="none" stroke-width="1" stroke-linecap="butt" stroke-linejoin="miter" stroke-miterlimit="10" stroke-dasharray="" stroke-dashoffset="0" font-family="Serif" font-weight="normal" text-anchor="start" style="mix-blend-mode: normal"><tspan x="0" dy="0">助跳 Jump higher.</tspan></text><path d="M365.26564,338.1876c-0.19209,0.38374 -0.67187,0.38374 -0.67187,0.38374l-0.66602,-1.37404c0.47145,-0.31325 0.8946,-0.5612 1.31999,-0.75178c-1.65296,-0.24243 -2.89518,-1.55473 -4.18429,-2.84384c-1.38853,-1.39749 -2.51028,-2.92542 -2.47084,-4.83964c-1.21271,-1.35827 -1.98483,-3.43217 -1.99883,-4.69069c0,0 0,-0.75 0.75,-0.75c0.75,0 0.75,0.75 0.75,0.75c-0.01342,0.87297 0.30645,1.98012 0.88613,2.85778c0.72441,-1.73565 2.71535,-4.19701 4.4599,-2.06303c0.91598,1.12044 0.24466,4.1648 -0.96958,4.85393c-0.77509,0.43989 -1.51638,0.47528 -2.1955,0.24291c0.32959,0.96788 1.06009,1.7946 1.84938,2.57808c1.16519,1.16518 2.56626,3.01399 4.44198,2.33387c-0.07473,-0.09796 -0.13525,-0.19152 -0.16866,-0.27501c-0.16672,-0.41665 -0.33333,-0.83333 -0.5,-1.25c0,0 -0.27855,-0.69635 0.41781,-0.9749c0.69636,-0.27854 0.9749,0.41782 0.9749,0.41782c0.27153,0.67879 1.67501,3.15212 1.2111,3.88945c-0.26485,0.42095 -2.20267,1.05187 -3.23558,1.50536zM360.17612,328.10112c0.18466,0.1045 0.37976,0.18578 0.58451,0.23901c1.35271,0.35169 1.99358,-1.45041 1.48714,-2.56354c-0.56949,-1.25169 -2.01859,2.11095 -2.0201,2.11643c-0.01932,0.07006 -0.03648,0.13943 -0.05156,0.2081z" data-paper-data="{&quot;index&quot;:null}" fill="#83bf7a" stroke="none" stroke-width="0.5" stroke-linecap="butt"/><path d="M306.77711,332.94185c0.48942,-0.94198 1.4314,-0.45256 1.4314,-0.45256l1.4341,0.75616c11.05313,2.26683 21.28295,0.78868 32.02811,-2.44902c4.9256,-1.55551 10.91438,-3.21353 14.51426,-7.09812c0.92346,-0.99651 3.36285,-2.69184 3.19984,-4.32205c-0.60074,-6.00776 -10.08423,-9.41392 -14.68387,-10.88581c-12.45169,-3.98455 -27.44524,-5.25378 -40.40981,-3.3006c-8.74825,1.31224 -17.52576,4.12371 -25.00304,8.95866c-4.19748,2.71417 -7.98941,5.78719 -3.25704,9.83431c10.45965,4.69016 23.9134,5.47534 35.16756,4.8501c0,0 1.05991,-0.05888 1.11878,1.00101c0.05888,1.05991 -1.00101,1.11878 -1.00101,1.11878c-11.70719,0.65041 -25.57415,-0.24608 -36.42236,-5.177c-5.57919,-4.74539 -3.14892,-8.52647 1.83812,-12.34151c7.67743,-5.87316 17.80866,-8.92863 27.24406,-10.34393c13.29389,-1.9858 28.60287,-0.70794 41.3718,3.37812c5.25794,1.68254 15.82538,5.75705 16.15068,12.71038c0.12435,2.65773 -2.16508,4.2695 -3.76179,5.96832c-3.9166,4.1671 -10.11447,5.99627 -15.44023,7.67803c-11.18358,3.37005 -21.87263,4.8885 -33.36848,2.41957l-1.69852,-0.87147c0,0 -0.94198,-0.48942 -0.45256,-1.4314z" fill="#83bf7a" stroke="none" stroke-width="0.5" stroke-linecap="butt"/><text transform="translate(283.77764,320.55524) rotate(-4.40515) scale(0.32405,0.32405)" font-size="40" xml:space="preserve" fill="#73a66a" fill-rule="nonzero" stroke="none" stroke-width="1" stroke-linecap="butt" stroke-linejoin="miter" stroke-miterlimit="10" stroke-dasharray="" stroke-dashoffset="0" font-family="Sans Serif" font-weight="normal" text-anchor="start" style="mix-blend-mode: normal"><tspan x="0" dy="0">诡异粘液</tspan></text><text transform="translate(229.77363,159.0839) rotate(-5.49446) scale(0.31337,0.31337)" font-size="40" xml:space="preserve" data-paper-data="{&quot;origPos&quot;:null}" fill="#b06666" fill-rule="nonzero" stroke="none" stroke-width="1" stroke-linecap="butt" stroke-linejoin="miter" stroke-miterlimit="10" stroke-dasharray="" stroke-dashoffset="0" font-family="Sans Serif" font-weight="normal" text-anchor="start" style="mix-blend-mode: normal"><tspan x="0" dy="0">奇怪岩浆</tspan></text><path d="M292.81042,159.83517c0,-1.02558 1.02558,-1.02558 1.02558,-1.02558l1.1895,0.01556c1.64081,-0.61301 4.31584,-1.00021 5.54403,-2.38198c1.57284,-1.76953 0.06548,-5.12623 -1.05301,-6.58285c-3.16701,-4.12444 -8.14968,-4.95155 -13.05607,-5.76928c-13.16025,-2.21741 -25.80661,-2.24605 -38.98922,-0.29307c-7.02035,1.03108 -16.44645,3.75476 -21.61752,8.89326c-2.70067,2.68366 -4.69874,8.70628 -0.53421,10.71574c2.83953,2.14222 6.5535,3.11077 9.97008,3.98097c9.40462,2.39531 17.81376,3.00518 27.50646,1.92919c10.92295,-1.97421 21.00776,-4.93984 31.39937,-8.40372c0,0 0.97296,-0.32432 1.29727,0.64863c0.32432,0.97296 -0.64863,1.29727 -0.64863,1.29727c-10.50877,3.50292 -20.70907,6.49813 -31.75228,8.48754c-9.95278,1.11062 -18.64803,0.49504 -28.30912,-1.97139c-3.62048,-0.9243 -7.5203,-1.97043 -10.54151,-4.22368c-5.34902,-2.75463 -3.4949,-10.28003 0.14951,-13.89817c5.51364,-5.47389 15.28505,-8.36536 22.77998,-9.48464c13.40907,-1.98653 26.2404,-1.90977 39.62702,0.29882c3.7125,0.61875 8.33224,1.26229 11.51171,3.48602c3.97426,2.77958 7.57595,10.28011 2.1561,13.48053c-1.43785,0.84905 -3.51638,1.25374 -5.08408,1.81088l-1.54538,0.01556c0,0 -1.02558,0 -1.02558,-1.02558z" fill="#c87474" stroke="none" stroke-width="0.5" stroke-linecap="butt"/><path d="M311.23452,163.78801c0.45,0.6 -0.15,1.05 -0.15,1.05l-1.0557,0.78798c-3.11593,1.56564 -8.56523,4.19913 -11.05559,1.32068c-3.11998,0.59795 -5.56034,-0.96203 -7.46274,-3.79264c0,0 -0.41602,-0.62404 0.20801,-1.04006c0.62404,-0.41602 1.04006,0.20801 1.04006,0.20801c1.43574,2.17434 3.14929,3.45505 5.41361,3.23116c-0.11214,-0.30014 -0.20737,-0.62986 -0.28399,-0.99123c0.00227,-1.34707 0.05108,-2.82442 1.33149,-3.69871c1.51077,-1.03159 5.48472,0.63357 5.4143,2.65377c-0.05455,1.56464 -2.87651,2.46873 -3.96423,2.91469c-0.00885,0.00363 -0.0177,0.00724 -0.02655,0.01084c2.24593,1.28913 6.67612,-1.1372 8.59704,-2.09248l0.9443,-0.71201c0,0 0.6,-0.45 1.05,0.15zM299.61417,165.22819c0.15923,-0.05461 0.32092,-0.11584 0.48514,-0.18384c0.32157,-0.13315 3.02345,-1.07966 3.03578,-1.58531c0.0145,-0.59491 -2.49358,-1.81301 -3.0857,-1.34622c-0.71058,0.56017 -0.67038,1.51113 -0.66851,2.30128c0.05549,0.30462 0.1341,0.57505 0.23329,0.81409z" fill="#c87474" stroke="none" stroke-width="0.5" stroke-linecap="butt"/><path d="M312.38451,167.738c-0.75,0 -0.75,-0.75 -0.75,-0.75v-0.75c0,-0.15005 0.19176,-2.21412 -0.0503,-2.49041c-0.49296,-0.56269 -2.17508,-0.70327 -2.86573,-1.13555c0,0 -0.62404,-0.41602 -0.20801,-1.04006c0.41602,-0.62404 1.04006,-0.20801 1.04006,-0.20801c0.80651,0.59425 2.4705,0.50495 3.13427,1.36445c0.67332,0.87187 0.44971,2.50395 0.44971,3.50959v0.75c0,0 0,0.75 -0.75,0.75z" fill="#c87474" stroke="none" stroke-width="0.5" stroke-linecap="butt"/><text transform="translate(225.93451,184.33073) scale(0.27211,0.27211)" font-size="40" xml:space="preserve" fill="#ffffff" fill-rule="nonzero" stroke="none" stroke-width="1" stroke-linecap="butt" stroke-linejoin="miter" stroke-miterlimit="10" stroke-dasharray="" stroke-dashoffset="0" font-family="Serif" font-weight="normal" text-anchor="start" style="mix-blend-mode: normal"><tspan x="0" dy="0">碰到会死 </tspan><tspan x="0" dy="48px">Keep away or die.</tspan></text><path d="M147.30753,50.93448c-0.09088,-0.87801 0.78712,-0.9689 0.78712,-0.9689l1.31481,-0.13609c4.71969,-0.48852 13.60816,-3.0619 15.23875,-8.27352c0.68449,-2.18771 -0.21714,-5.87107 -0.16668,-8.21533c-1.56302,-1.43861 -2.97289,-3.40122 -4.68514,-4.63514c-7.7098,-5.55597 -18.78544,-7.71655 -27.96569,-9.02747c-11.64799,-1.6704 -24.80354,-1.70271 -36.0781,1.7118c-3.8055,1.15025 -9.14032,2.75431 -12.19404,5.42954c-4.5524,3.98814 -3.81118,9.72948 0.79754,13.12062c1.44111,1.06039 2.63832,1.99132 4.28716,2.69768c11.55549,4.99734 22.82766,5.35632 35.29251,5.10276c10.31347,-0.20626 20.59167,-2.2009 30.85822,-2.77187c0,0 0.88135,-0.049 0.93035,0.83232c0.04901,0.88133 -0.83232,0.93035 -0.83232,0.93035c-10.28796,0.57214 -20.58519,2.56055 -30.92034,2.77422c-12.72142,0.25879 -24.23257,-0.14583 -36.02917,-5.24743c-2.84319,-1.23993 -7.32929,-3.96807 -8.65479,-6.96372c-1.81339,-4.09827 -0.09219,-8.99972 3.10753,-11.80284c3.25494,-2.8515 8.78683,-4.55971 12.84567,-5.79123c11.52871,-3.49148 24.92677,-3.46405 36.83937,-1.76986c12.60481,1.79994 25.1423,5.23738 34.02549,14.7185c0.13718,2.61336 1.01022,6.93197 0.22731,9.43426c-1.86339,5.95573 -11.28919,8.938 -16.74184,9.5024l-1.31481,0.13609c0,0 -0.87801,0.09088 -0.9689,-0.78712z" data-paper-data="{&quot;index&quot;:null}" fill="#59b2a6" stroke="none" stroke-width="0.5" stroke-linecap="butt"/><text transform="translate(91.93451,61.14) scale(0.26681,0.26681)" font-size="40" xml:space="preserve" fill="#ffffff" fill-rule="nonzero" stroke="none" stroke-width="1" stroke-linecap="butt" stroke-linejoin="miter" stroke-miterlimit="10" stroke-dasharray="" stroke-dashoffset="0" font-family="Serif" font-weight="normal" text-anchor="start" style="mix-blend-mode: normal"><tspan x="0" dy="0">通关 Pass.</tspan></text><g data-paper-data="{&quot;index&quot;:null}" fill="#59b2a6" stroke="none" stroke-width="0.5" stroke-linecap="butt"><path d="M70.41348,57.68049l-0.24429,-0.68469c3.3764,-0.15446 7.91542,-3.60971 7.2384,-7.40813c-0.03062,-0.24624 -0.08055,-0.46977 -0.14915,-0.6708c-0.09564,0.09773 -0.19262,0.19553 -0.29082,0.29346c-1.00132,0.99853 -2.30513,2.42052 -3.9557,1.76155c-1.23969,-0.49493 -1.73128,-1.75137 -1.26924,-2.97788c0.93845,-2.49114 3.6693,-2.19044 5.42134,-0.84535c1.50727,-1.6887 2.48607,-3.44595 1.81002,-6.01509c0,0 -0.15539,-0.62155 0.46616,-0.77694c0.62155,-0.15539 0.77694,0.46616 0.77694,0.46616c0.72883,3.0443 -0.34422,5.18282 -2.15203,7.23009c0.30695,0.41206 0.52312,0.86576 0.60828,1.33574c0.61298,4.33976 -3.69936,8.24378 -7.75592,8.8214c-0.14995,0.06643 -0.29136,0.06644 -0.29136,0.06644l-0.01055,-0.02958c-0.12937,0.01314 -0.25835,0.0228 -0.38676,0.02888zM76.48364,47.87587c-0.48766,-0.3123 -1.1519,-0.3982 -1.97144,-0.26457c-0.73496,0.11983 -2.02831,0.61259 -1.58947,1.65513c0.68634,1.63052 2.61551,-0.43689 3.13869,-0.96199c0.14291,-0.14343 0.28388,-0.28613 0.42222,-0.42856z"/><path d="M70.04219,53.21085c0.58087,0.2703 0.31056,0.85117 0.31056,0.85117l-0.38466,0.79336c-0.00859,0.78137 -0.3612,1.52806 -0.41138,2.30786c-0.07013,1.08986 2.75033,2.09161 3.49152,2.46221c0,0 0.57304,0.28652 0.28652,0.85956c-0.28652,0.57304 -0.85956,0.28652 -0.85956,0.28652c-1.35895,-0.67948 -4.09167,-1.65948 -4.19661,-3.51745c-0.05116,-0.90576 0.42143,-1.7787 0.44071,-2.68571l0.47172,-1.04696c0,0 0.2703,-0.58087 0.85117,-0.31056z"/></g><text transform="translate(86.87156,35.32869) rotate(-2.78144) scale(0.32405,0.32405)" font-size="40" xml:space="preserve" fill="#41a497" fill-rule="nonzero" stroke="none" stroke-width="1" stroke-linecap="butt" stroke-linejoin="miter" stroke-miterlimit="10" stroke-dasharray="" stroke-dashoffset="0" font-family="Sans Serif" font-weight="normal" text-anchor="start" style="mix-blend-mode: normal"><tspan x="0" dy="0">神奇按钮</tspan></text><path d="M118.94533,207.83635l-30.75,-30.75v-20" fill="none" stroke="#4a4a4a" stroke-width="9" stroke-linecap="round"/><text transform="translate(95.07318,44.19176) rotate(-2.21593) scale(0.19824,0.19824)" font-size="40" xml:space="preserve" fill="#41a497" fill-rule="nonzero" stroke="none" stroke-width="1" stroke-linecap="butt" stroke-linejoin="miter" stroke-miterlimit="10" stroke-dasharray="" stroke-dashoffset="0" font-family="Sans Serif" font-weight="normal" text-anchor="start" style="mix-blend-mode: normal"><tspan x="0" dy="0">wonderful button</tspan></text><text transform="translate(293.87265,327.05966) rotate(-1.48819) scale(0.20908,0.20908)" font-size="40" xml:space="preserve" fill="#73a66a" fill-rule="nonzero" stroke="none" stroke-width="1" stroke-linecap="butt" stroke-linejoin="miter" stroke-miterlimit="10" stroke-dasharray="" stroke-dashoffset="0" font-family="Sans Serif" font-weight="normal" text-anchor="start" style="mix-blend-mode: normal"><tspan x="0" dy="0">werid mucus</tspan></text><text transform="translate(239.65058,167.94192) rotate(-6.20615) scale(0.20628,0.20628)" font-size="40" xml:space="preserve" data-paper-data="{&quot;origPos&quot;:null}" fill="#c87474" fill-rule="nonzero" stroke="none" stroke-width="1" stroke-linecap="butt" stroke-linejoin="miter" stroke-miterlimit="10" stroke-dasharray="" stroke-dashoffset="0" font-family="Sans Serif" font-weight="normal" text-anchor="start" style="mix-blend-mode: normal"><tspan x="0" dy="0">strange lava</tspan></text><path d="M203.57865,235.21066c0,0 -44.18951,2.14483 -58.32843,-4.36416c-14.13892,-6.50899 -15.3166,-13.71142 -4.5235,-26.23631c6.92782,-8.03941 64.39253,-3.6549 71.89894,3.68563c2.38757,2.33481 -2.7141,13.79668 -2.7141,13.79668l4.29733,11.98728l-10.63023,1.13088z" data-paper-data="{&quot;index&quot;:null}" fill="none" stroke="#ffffff" stroke-width="1.5" stroke-linecap="round"/><text transform="translate(142.19157,213.94418) rotate(4.37978) scale(0.2432,0.2432)" font-size="40" xml:space="preserve" fill="#ffffff" fill-rule="nonzero" stroke="none" stroke-width="1" stroke-linecap="butt" stroke-linejoin="miter" stroke-miterlimit="10" stroke-dasharray="" stroke-dashoffset="0" font-family="Sans Serif" font-weight="normal" text-anchor="start" style="mix-blend-mode: normal"><tspan x="0" dy="0">Oops...I can't </tspan><tspan x="0" dy="46.150000000000006px">find my...</tspan></text></g></g></svg>