<svg version="1.1" xmlns="http://www.w3.org/2000/svg" xmlns:xlink="http://www.w3.org/1999/xlink" width="142.76132" height="33.21031" viewBox="0,0,142.76132,33.21031"><g transform="translate(-118.40961,-127.19851)"><g data-paper-data="{&quot;isPaintingLayer&quot;:true}" fill-rule="nonzero" stroke-linejoin="miter" stroke-miterlimit="10" stroke-dasharray="" stroke-dashoffset="0" style="mix-blend-mode: normal"><g><path d="M121.73661,158.16044c0,0 -0.99629,-13.34472 11.5,-13.17857c10.92104,0.1452 11.5,13.17857 11.5,13.17857z" fill="#6bd6c7" stroke="none" stroke-width="0" stroke-linecap="butt"/><path d="M121.40961,156.93691c0,0 8.23019,0 12.5,0c3.85423,0 11,0 11,0" fill="none" stroke="#f1f1f1" stroke-width="6" stroke-linecap="round"/></g><path d="M160.06994,158.0176c0,0 -0.99629,-13.34472 11.5,-13.17857c10.92104,0.1452 11.5,13.17857 11.5,13.17857z" fill="#9c9c9c" stroke="none" stroke-width="0" stroke-linecap="butt"/><path d="M182.90961,156.79406c0,0 -7.14577,0 -11,0c-4.26981,0 -12.5,0 -12.5,0" fill="none" stroke="#f1f1f1" stroke-width="6" stroke-linecap="round"/><path d="M197.02232,158.0176c0,0 -0.99629,-13.34472 11.5,-13.17857c10.92104,0.1452 11.5,13.17857 11.5,13.17857z" fill="#9c9c9c" stroke="none" stroke-width="0" stroke-linecap="butt"/><path d="M220.19532,156.79406c0,0 -7.14577,0 -11,0c-4.26981,0 -12.5,0 -12.5,0" fill="none" stroke="#f1f1f1" stroke-width="6" stroke-linecap="round"/><g fill="#ffffff" stroke="none" stroke-width="0" stroke-linecap="butt"><path d="M235.97768,155.79422c0,-5.25271 0,-13.47532 0,-16.3382c0,-1.94981 2.44767,-4.24045 4.48989,-4.24045c2.83612,0 10.66312,0 15.83932,0c2.82751,0 4.86404,2.52685 4.86404,4.61461c0,2.82071 0,10.45557 0,15.58989c0,2.8907 -2.68649,4.98876 -4.86404,4.98876c-2.95139,0 -10.9248,0 -15.96404,0c-2.56171,0 -4.36517,-1.91509 -4.36517,-4.61461z"/><path d="M238.62262,138.98447c0,0 4.55269,-11.78595 9.50357,-11.78595c4.95089,0 10.17759,11.6675 10.17759,11.6675z"/></g><g fill="#ff6363" stroke="none" stroke-width="0.5" stroke-linecap="butt"><path d="M247.43638,148.29088c0,-1.41076 1.41076,-1.41076 1.41076,-1.41076l0.73157,0.17425c0.4334,-1.01759 0.955,-2.17585 1.16766,-3.22175c0.11404,-0.56086 0.16257,-1.15692 0.04232,-1.71647c-0.22825,-1.06213 -1.61237,-1.66185 -2.55793,-1.38706c-2.07892,0.60415 -3.55256,2.23877 -2.74778,4.29415c0,0 0.44612,1.33836 -0.89224,1.78449c-1.33836,0.44612 -1.78448,-0.89224 -1.78448,-0.89224c-0.54102,-1.80077 -1.06768,-2.44203 0.11072,-4.43297c1.84765,-3.12166 6.39067,-5.07182 9.279,-2.18349c0.56126,0.56126 1.08779,1.23279 1.29318,1.9995c0.25757,0.96156 0.19985,2.00315 0.04232,2.98606c-0.43747,2.72956 -1.09879,3.1782 -2.59436,5.24281l-2.08995,0.17425c0,0 -1.41076,0 -1.41076,-1.41076z"/><path d="M248.37688,153.93392c0,-0.77914 0.63162,-1.41076 1.41076,-1.41076c0.77914,0 1.41076,0.63162 1.41076,1.41076c0,0.77914 -0.63162,1.41076 -1.41076,1.41076c-0.77914,0 -1.41076,-0.63162 -1.41076,-1.41076z"/></g><path d="M148.35882,150.97276h6.16667" fill="none" stroke="#fff780" stroke-width="2" stroke-linecap="round"/><path d="M192.85883,150.97276h-6.16667" fill="none" stroke="#bcbcbc" stroke-width="2" stroke-linecap="round"/><path d="M231.02549,151.13943h-6.16666" fill="none" stroke="#6f6f6f" stroke-width="2" stroke-linecap="round"/></g></g></svg>