<svg version="1.1" xmlns="http://www.w3.org/2000/svg" xmlns:xlink="http://www.w3.org/1999/xlink" width="44.28462" height="58.37698" viewBox="0,0,44.28462,58.37698"><g transform="translate(-218.05297,-143.69851)"><g data-paper-data="{&quot;isPaintingLayer&quot;:true}" fill-rule="nonzero" stroke="none" stroke-width="0" stroke-linecap="butt" stroke-linejoin="miter" stroke-miterlimit="10" stroke-dasharray="" stroke-dashoffset="0" style="mix-blend-mode: normal"><path d="M218.05297,193.96394c0,-9.23319 0,-23.68688 0,-28.71923c0,-3.42737 4.30251,-7.45385 7.89231,-7.45385c4.98532,0 18.74359,0 27.84231,0c4.97018,0 8.55,4.44168 8.55,8.11154c0,4.95824 0,18.37876 0,27.40385c0,5.08126 -4.7223,8.76923 -8.55,8.76923c-5.18795,0 -19.20358,0 -28.06154,0c-4.50297,0 -7.67308,-3.36634 -7.67308,-8.11154z" fill="#ffffff"/><path d="M222.70225,164.41581c0,0 8.00271,-20.7173 16.70535,-20.7173c8.70265,0 17.89014,20.50909 17.89014,20.50909z" fill="#ffffff"/><path d="M226.50002,179.25c0,-7.45584 6.04415,-13.49999 13.49999,-13.49999c7.45584,0 13.49999,6.04415 13.49999,13.49999c0,7.45584 -6.04415,13.49999 -13.49999,13.49999c-7.45584,0 -13.49999,-6.04415 -13.49999,-13.49999z" fill="#3b3b3b"/></g></g></svg>