<svg version="1.1" xmlns="http://www.w3.org/2000/svg" xmlns:xlink="http://www.w3.org/1999/xlink" width="81.75387" height="56.52459" viewBox="0,0,81.75387,56.52459"><g transform="translate(-199.12306,-151.7377)"><g data-paper-data="{&quot;isPaintingLayer&quot;:true}" fill-rule="nonzero" stroke="none" stroke-width="0" stroke-linecap="butt" stroke-linejoin="miter" stroke-miterlimit="10" stroke-dasharray="" stroke-dashoffset="0" style="mix-blend-mode: normal"><g fill="#ffffff"><path d="M203.89722,171.51863c0,0 7.641,-19.78092 15.9503,-19.78092c8.30931,0 17.08154,19.58212 17.08154,19.58212z"/><path d="M242.52244,172.24753c0,0 7.641,-19.78092 15.9503,-19.78092c8.30931,0 17.08154,19.58212 17.08154,19.58212z"/><path d="M199.12307,201.90244c0,-8.64165 0,-23.77486 0,-28.74159c0,-2.99559 3.0619,-6.41418 6.33729,-6.41418c9.0977,0 52.43731,0 68.97982,0c4.00289,0 6.43675,3.68239 6.43675,6.83998c0,4.93549 0,19.72951 0,28.31579c0,3.78218 -2.76945,6.35986 -5.79805,6.35986c-8.97463,0 -54.16707,0 -70.25723,0c-3.5627,0 -5.69859,-2.80881 -5.69859,-6.35986z"/></g><path d="M206.27319,185.63874c0,-7.45584 6.04415,-13.49999 13.49999,-13.49999c7.45584,0 13.49999,6.04415 13.49999,13.49999c0,7.45584 -6.04415,13.49999 -13.49999,13.49999c-7.45584,0 -13.49999,-6.04415 -13.49999,-13.49999z" fill="#3b3b3b"/><path d="M246.72683,186.40214c0,-7.45584 6.04415,-13.49999 13.49999,-13.49999c7.45584,0 13.49999,6.04415 13.49999,13.49999c0,7.45584 -6.04415,13.49999 -13.49999,13.49999c-7.45584,0 -13.49999,-6.04415 -13.49999,-13.49999z" fill="#3b3b3b"/><path d="M245.3604,201.18941c0,2.29381 -2.89547,0.8209 -5.66535,0.8209c-2.76988,0 -4.85859,0.31158 -4.85859,-1.98223c0,-2.29381 1.9551,-5.65636 4.72498,-5.65636c2.76988,0 5.79896,4.52389 5.79896,6.81769z" fill="#de5757"/></g></g></svg>