<svg version="1.1" xmlns="http://www.w3.org/2000/svg" xmlns:xlink="http://www.w3.org/1999/xlink" width="63.67316" height="69.02265" viewBox="0,0,63.67316,69.02265"><g transform="translate(-208.16342,-145.48868)"><g data-paper-data="{&quot;isPaintingLayer&quot;:true}" fill="#ffffff" fill-rule="nonzero" stroke="none" stroke-width="0.5" stroke-linecap="butt" stroke-linejoin="miter" stroke-miterlimit="10" stroke-dasharray="" stroke-dashoffset="0" style="mix-blend-mode: normal"><path d="M208.4404,211.95565c0,-2.55568 2.55568,-2.55568 2.55568,-2.55568l0.04372,0.13115c0.17439,-0.05813 0.34519,-0.11656 0.51281,-0.17535c-1.0914,-1.19316 -0.28671,-2.80252 -0.28671,-2.80252c1.52703,-2.99527 3.17545,-5.3554 5.27077,-7.94174c0.35854,-0.44256 1.30531,-0.56931 1.27456,-1.13804c-0.03533,-0.6534 -1.09377,-0.79299 -1.40994,-1.36589c-1.35977,-2.46395 -2.17442,-5.19606 -3.43161,-7.7139c-3.75336,-7.51703 -7.23476,-18.10899 -2.54746,-26.05063c0.97792,-1.65688 2.54287,-2.89505 3.93894,-4.2189c3.50546,-3.32413 7.5647,-5.57248 11.64511,-8.07018c5.15975,-2.20126 11.69818,-4.82314 17.4371,-4.54489c9.22701,0.44737 20.49812,6.33175 24.97018,14.7214c0.87334,1.63841 1.12106,3.54001 1.68172,5.30997c2.07239,6.54237 2.38229,15.5901 0.45667,22.33163c-0.43563,1.52512 -1.24744,2.9204 -1.75107,4.42443c-0.40702,1.21551 -0.39598,2.57651 -0.97599,3.71963c-2.0733,4.08621 -6.12532,7.19507 -9.33222,10.34574c-0.54905,0.27991 -7.19795,3.70652 -7.7223,3.82161c-2.75424,0.60456 -7.50941,-0.27213 -10.184,-0.57944c-1.00514,-0.11549 -2.05495,0.00307 -3.02049,-0.29922c-3.24655,-1.01643 -6.08924,-3.54216 -9.79663,-2.52891c-1.71776,0.46947 -2.8279,2.17815 -4.35493,3.09425c-0.84101,0.50454 -1.89999,0.5336 -2.77644,0.97371c-2.75141,1.38161 -5.00683,2.54467 -7.9817,3.5363l-1.66007,0.13115c0,0 -2.55568,0 -2.55568,-2.55568zM216.86476,207.01768c0.48787,-0.24452 0.99226,-0.49908 1.52741,-0.76541c0.73006,-0.36332 1.63569,-0.31048 2.33492,-0.73008c1.9859,-1.19172 3.64528,-3.06937 5.86779,-3.72089c4.65252,-1.36389 8.27122,1.23928 12.3526,2.58245c0.68838,0.22654 1.4492,0.05967 2.16981,0.1366c1.06761,0.11397 6.8503,1.05664 8.47871,0.68853c2.15337,-0.48678 3.92387,-2.02543 5.90799,-2.99354c2.52871,-2.58667 6.08612,-5.09342 7.70565,-8.39591c0.46671,-0.9517 0.39417,-2.08942 0.7278,-3.09552c0.46342,-1.39746 1.23748,-2.68309 1.6565,-4.0945c0.6858,-2.31006 0.63338,-4.78173 0.77912,-7.18703c0.33594,-5.54407 0.17898,-11.75508 -2.47737,-16.82129c-3.55943,-6.78857 -13.24926,-11.64008 -20.603,-12.00286c-4.82187,-0.23787 -10.58987,2.10169 -14.93484,3.97404c-3.68,2.27383 -7.29417,4.31136 -10.50412,7.2639c-1.07076,0.98489 -2.29001,1.88096 -3.05107,3.12084c-1.61026,2.62335 -1.2509,3.59471 -1.2509,6.08776c0,7.01141 2.95195,12.26986 5.73897,18.5466c0.59914,1.34934 1.01509,2.77634 1.63423,4.11662c0.59338,1.28453 2.02245,2.33073 1.99763,3.74547c-0.02636,1.50299 -1.36699,2.67992 -2.13301,3.97332c-1.29304,2.18325 -2.68832,3.64198 -3.92481,5.5709z"/><g><path d="M239.4186,181.51133c0,-3 3,-3 3,-3l1.5557,0.37055c0.92163,-2.16391 2.03081,-4.62698 2.48304,-6.8511c0.2425,-1.19267 0.3457,-2.4602 0.08999,-3.6501c-0.48538,-2.25863 -3.42872,-3.53394 -5.43947,-2.9496c-4.42085,1.28473 -7.55456,4.76077 -5.8432,9.13157c0,0 0.94868,2.84605 -1.89737,3.79474c-2.84605,0.94869 -3.79473,-1.89736 -3.79473,-1.89736c-1.15049,-3.82937 -2.27044,-5.19301 0.23545,-9.42678c3.92905,-6.63825 13.58984,-10.7853 19.73192,-4.64323c1.19353,1.19353 2.31321,2.62154 2.74996,4.25197c0.54773,2.04476 0.42498,4.25973 0.08999,6.3499c-0.93029,5.80445 -2.3366,6.75849 -5.51695,11.1489l-4.44431,0.37055c0,0 -3,0 -3,-3z"/><path d="M241.4186,193.51133c0,-1.65686 1.34314,-3 3,-3c1.65686,0 3,1.34314 3,3c0,1.65686 -1.34314,3 -3,3c-1.65686,0 -3,-1.34314 -3,-3z"/></g></g></g></svg>