<svg version="1.1" xmlns="http://www.w3.org/2000/svg" xmlns:xlink="http://www.w3.org/1999/xlink" width="96.94474" height="88.18514" viewBox="0,0,96.94474,88.18514"><g transform="translate(-16.50074,-13.3658)"><g data-paper-data="{&quot;isPaintingLayer&quot;:true}" fill-rule="nonzero" stroke-linecap="butt" stroke-linejoin="miter" stroke-miterlimit="10" stroke-dasharray="" stroke-dashoffset="0" style="mix-blend-mode: normal"><path d="M17.5724,101.01502v-86.74324h94.73665v86.74324z" fill="#ffffff" stroke="none" stroke-width="NaN"/><path d="M62.62628,26.97119c2.04948,-0.75802 4.29082,0.05973 5.00617,1.82652c0.71535,1.76679 -0.36617,3.81354 -2.41566,4.57156c-2.04948,0.75802 -4.64001,-5.64007 -2.59052,-6.39809z" fill="#6bd6c7" stroke="none" stroke-width="2"/><path d="M52.5298,49.1598c0,3.43017 -3.04263,6.01371 -6.30946,6.01371c-3.26683,0 -4.53492,-2.07029 -4.53492,-2.07029c0,0 2.24059,-0.33605 3.90707,-2.41367c0.77416,-0.96514 1.72599,-3.19589 2.82156,-4.71054c0.97386,-1.34639 2.14403,-2.04422 2.14403,-2.04422c0,0 1.97171,1.79485 1.97171,5.22502z" fill="#db8080" stroke="none" stroke-width="0"/><path d="M35.1875,88.80046c-4.33288,0 -7.84537,-3.04858 -7.84537,-6.8092c0,-3.76062 1.33223,-8.38775 1.33223,-8.38775c0,0 0.58212,3.8424 2.75361,5.39201c2.332,1.66415 4.62896,1.1212 6.76358,2.05167c0.78557,0.34242 4.84786,3.73178 4.84786,3.73178c0,0 -4.81944,4.02148 -7.8519,4.02148z" fill="#64bf55" stroke="none" stroke-width="0"/><path d="M111.91352,100.39563l-93.35408,-0.78927c0,0 -4.19788,-5.70087 4.63282,-6.86086c1.8608,-0.24444 5.99756,1.97601 8.98557,1.97601c4.50946,0 9.02629,0.14696 13.61158,-0.63223c3.53069,-0.59998 6.7404,-2.23118 12.2443,-1.93379c2.32861,0.12582 5.82773,1.95449 9.34845,2.45278c4.15117,0.58752 5.78339,-1.57712 9.90495,-0.69204c3.5619,0.76488 10.02088,2.32391 15.8562,2.65737c4.18957,0.23941 10.02938,-2.50125 12.273,-2.17541c7.556,1.09734 5.51136,5.80029 5.51136,5.80029z" fill="#db8080" stroke="none" stroke-width="0"/><path d="M85.27002,88.35638c0,0 0.3767,-3.53106 3.51929,-7.28121c2.73297,-3.26131 5.84233,-4.0214 7.38374,-8.9908c1.81238,-5.84297 0.19892,-9.63255 0.19892,-9.63255c0,0 10.50985,2.47826 9.32563,15.54273c-0.24679,7.43539 -5.43879,12.28616 -12.87826,12.28616c-7.43948,0 -7.54932,-1.92434 -7.54932,-1.92434z" fill="#db8080" stroke="none" stroke-width="0"/><g fill="none" stroke="#4a4a4a" stroke-width="2.5"><path d="M17.75074,100.30094v-85.68514h94.44474v85.68514z"/><path d="M44.69762,41.87924c0.9538,-0.21394 1.96881,-0.22536 2.98582,0.0032c3.6772,0.82643 5.98822,4.47734 5.1618,8.15456c-0.82643,3.6772 -4.47734,5.98822 -8.15456,5.1618c-2.0781,-0.46703 -3.71987,-1.83613 -4.60563,-3.60225"/><path d="M87.41915,36.65285c2.58565,0.37239 4.96961,1.91703 6.31551,4.38746c2.17103,3.98496 0.85348,8.93316 -2.91829,11.33423"/><path d="M80.6993,51.72485c-0.80348,-0.67156 -1.49665,-1.50258 -2.02802,-2.47789c-0.43628,-0.8008 -0.73169,-1.64049 -0.8946,-2.4906"/><path d="M86.10543,62.23862c1.26016,-0.51114 2.6115,-0.85794 4.03064,-1.01132c8.22805,-0.88929 15.61911,5.05995 16.5084,13.28802c0.88929,8.22805 -5.05995,15.61911 -13.28802,16.5084c-4.48516,0.48475 -8.72161,-1.0625 -11.79181,-3.90319"/><path d="M44.99687,79.38707c-0.08272,2.61916 -1.30194,5.20547 -3.55368,6.97134c-3.98448,3.12472 -9.69315,2.4972 -12.75066,-1.4016c-3.05751,-3.8988 -2.30606,-9.59247 1.67842,-12.71718c1.102,-0.86422 2.33589,-1.44141 3.60912,-1.74176" data-paper-data="{&quot;index&quot;:null}"/><path d="M73.54866,70.11539c-0.52903,3.89738 -3.86995,6.90121 -7.91243,6.90121c-4.41022,0 -7.98541,-3.57518 -7.98541,-7.98542c0,-0.18461 0.00627,-0.36776 0.01859,-0.54924"/><path d="M69.74382,33.15809c-0.82333,0.55125 -1.8135,0.87275 -2.87875,0.87275c-2.86134,0 -5.18091,-2.31957 -5.18091,-5.18091c0,-2.86134 2.31957,-5.18091 5.18091,-5.18091c0.19244,0 0.38244,0.0105 0.56943,0.03094"/></g></g></g></svg>