<svg version="1.1" xmlns="http://www.w3.org/2000/svg" xmlns:xlink="http://www.w3.org/1999/xlink" width="748.57301" height="475.19681" viewBox="0,0,748.57301,475.19681"><g transform="translate(126.11036,64.22158)"><g data-paper-data="{&quot;isPaintingLayer&quot;:true}" fill-rule="nonzero" stroke-linejoin="miter" stroke-miterlimit="10" stroke-dasharray="" stroke-dashoffset="0" style="mix-blend-mode: normal"><g><g><path d="M-46.1117,-51.47158c0,-7.04163 5.14873,-12.75 11.5,-12.75c6.35127,0 11.5,5.70837 11.5,12.75c0,7.04163 -23,7.04163 -23,0z" fill="#6bd6c7" stroke="none" stroke-width="0" stroke-linecap="butt"/><path d="M-46.01013,-52.69512c0,0 8.23019,0 12.5,0c3.85423,0 11,0 11,0" fill="none" stroke="#f1f1f1" stroke-width="6" stroke-linecap="round"/></g><path d="M441.03697,84.94041c0,0 -14.97465,-16.64752 -21.97477,-26.42402c-10.02422,-14 -14.06126,-6.42759 -14.06126,-32.13453c0,-25.70695 33.78378,-43.54354 33.78378,-43.54354z" fill="#db8080" stroke="none" stroke-width="0" stroke-linecap="butt"/><path d="M163.2592,188.53396c0,14.92661 -27.77778,28.2012 -27.77778,28.2012l-1.93576,-48.65325l-23.33751,-1.89029c0,0 12.09204,-29.02703 25.77477,-29.02703c13.68273,0 27.27628,36.44275 27.27628,51.36937z" fill="#db8080" stroke="none" stroke-width="0" stroke-linecap="butt"/><path d="M441.53697,185.9709l-39.51583,1.70364l-3.76646,52.58765c0,0 -33.28228,-10.48674 -33.28228,-33.29129c0,-22.80455 25.95327,-50.29129 43.78228,-50.29129c17.82901,0 32.78228,29.29129 32.78228,29.29129z" fill="#db8080" stroke="none" stroke-width="0" stroke-linecap="butt"/><path d="M418.51445,400.90841h-94.5946c0,0 6.16071,-23.27328 32.28229,-23.27328c13.83048,0 32.16737,-13.29052 46.36154,-3.18955c12.61431,8.9767 15.95077,26.46283 15.95077,26.46283z" fill="#64bf55" stroke="none" stroke-width="0" stroke-linecap="butt"/><path d="M554.89809,320.35945c16.62975,-3.42957 27.02553,-11.27518 27.02553,-11.27518l-4.02553,35.53829l-52.28153,-0.85089c0,0 8.36715,-19.09902 29.28153,-23.41222z" data-paper-data="{&quot;index&quot;:null}" fill="#64bf55" stroke="none" stroke-width="0" stroke-linecap="butt"/><path d="M27.37406,300.80274l-52.28153,1.28228l-4.02552,-53.55631c0,0 10.39577,11.82336 27.02553,16.99174c20.91439,6.5 29.28153,35.28229 29.28153,35.28229z" fill="#64bf55" stroke="none" stroke-width="0" stroke-linecap="butt"/><path d="M148.01011,-31.08084c0,0 -0.23715,15.41783 -5.05611,21.02215c-7.09947,8.25649 -14.88864,14.42852 -21.63966,18.60012c-13.52988,8.36041 -23.87449,22.10259 -23.87449,22.10259l-2.77149,-62.2558z" fill="#db8080" stroke="none" stroke-width="0" stroke-linecap="butt"/><path d="M-11.73845,66.93223c0,0 -28.53263,-22.71154 -28.53263,-57.12568c0,-34.41414 -29.27686,-51.67275 -11.86248,-51.67275c9.58452,0 37.36268,-1.18059 37.36268,-1.18059z" fill="#db8080" stroke="none" stroke-width="0" stroke-linecap="butt"/></g><text transform="translate(-112.10937,355.48916) scale(0.40509,0.40509)" font-size="40" xml:space="preserve" fill="#ffffff" fill-rule="nonzero" stroke="none" stroke-width="1" stroke-linecap="butt" stroke-linejoin="miter" stroke-miterlimit="10" stroke-dasharray="" stroke-dashoffset="0" font-family="Serif" font-weight="normal" text-anchor="start" style="mix-blend-mode: normal"><tspan x="0" dy="0">Be careful.</tspan><tspan x="0" dy="48px">当心些 </tspan></text><path d="M-120.36036,405.22523h614.11411c0,0 87.56702,0 104.74475,0" fill="none" stroke="#4a4a4a" stroke-width="11.5" stroke-linecap="round"/><path d="M76.17211,166.00786h55.55555v85.58558" fill="none" stroke="#4a4a4a" stroke-width="11.5" stroke-linecap="round"/><path d="M208.30424,349.19105v-67.56757h60.06006" fill="none" stroke="#4a4a4a" stroke-width="11.5" stroke-linecap="round"/><path d="M376.47241,-36.69484h61.56156c0,0 0,38.1962 0,59.73631c0,25.37597 0,82.90633 0,82.90633" fill="none" stroke="#4a4a4a" stroke-width="11.5" stroke-linecap="round"/><path d="M398.99493,289.13098v-102.1021h61.56156" fill="none" stroke="#4a4a4a" stroke-width="11.5" stroke-linecap="round"/><path d="M92.68862,36.87873v-67.56757h60.06006" fill="none" stroke="#4a4a4a" stroke-width="11.5" stroke-linecap="round"/><path d="M236.83277,59.40125h57.05705v127.62763" fill="none" stroke="#4a4a4a" stroke-width="11.5" stroke-linecap="round"/><path d="M-64.96903,-45.70385h51.05105v126.12612" fill="none" stroke="#4a4a4a" stroke-width="11.5" stroke-linecap="round"/><path d="M29.62557,302.6445h-58.55856v-78.07808" data-paper-data="{&quot;index&quot;:null}" fill="none" stroke="#4a4a4a" stroke-width="11.5" stroke-linecap="round"/><path d="M558.15409,173.43094v-127.62763h58.55856" fill="none" stroke="#4a4a4a" stroke-width="11.5" stroke-linecap="round"/><path d="M582.17812,301.05856v45.04505h-67.56757" data-paper-data="{&quot;index&quot;:null}" fill="none" stroke="#4a4a4a" stroke-width="11.5" stroke-linecap="round"/></g></g></svg>