<svg version="1.1" xmlns="http://www.w3.org/2000/svg" xmlns:xlink="http://www.w3.org/1999/xlink" width="166.43154" height="35.79448" viewBox="0,0,166.43154,35.79448"><g transform="translate(-118.40961,-124.14242)"><g data-paper-data="{&quot;isPaintingLayer&quot;:true}" fill-rule="nonzero" stroke-linejoin="miter" stroke-miterlimit="10" stroke-dasharray="" stroke-dashoffset="0" style="mix-blend-mode: normal"><g><path d="M121.73661,158.16044c0,0 -0.99629,-13.34472 11.5,-13.17857c10.92104,0.1452 11.5,13.17857 11.5,13.17857z" fill="#6bd6c7" stroke="none" stroke-width="0" stroke-linecap="butt"/><path d="M144.90961,156.9369c0,0 -7.14577,0 -11,0c-4.26981,0 -12.5,0 -12.5,0" fill="none" stroke="#f1f1f1" stroke-width="6" stroke-linecap="round"/></g><g><path d="M159.73661,158.01759c0,0 -0.99629,-13.34472 11.5,-13.17857c10.92104,0.1452 11.5,13.17857 11.5,13.17857z" fill="#6bd6c7" stroke="none" stroke-width="0" stroke-linecap="butt"/><path d="M159.40961,156.79405c0,0 8.23019,0 12.5,0c3.85423,0 11,0 11,0" fill="none" stroke="#f1f1f1" stroke-width="6" stroke-linecap="round"/></g><g><path d="M197.02232,158.01759c0,0 -0.99629,-13.34472 11.5,-13.17857c10.92104,0.1452 11.5,13.17857 11.5,13.17857z" fill="#6bd6c7" stroke="none" stroke-width="0" stroke-linecap="butt"/><path d="M196.69532,156.79405c0,0 8.23019,0 12.5,0c3.85423,0 11,0 11,0" fill="none" stroke="#f1f1f1" stroke-width="6" stroke-linecap="round"/></g><path d="M192.85883,150.97276h-6.16667" fill="none" stroke="#fff780" stroke-width="2" stroke-linecap="round"/><path d="M148.35882,150.97276h6.16667" fill="none" stroke="#fff780" stroke-width="2" stroke-linecap="round"/><path d="M231.02549,151.13942h-6.16666" fill="none" stroke="#ff7d7d" stroke-width="2" stroke-linecap="round"/><g fill="#ffffff" stroke="none" stroke-width="0" stroke-linecap="butt"><path d="M239.28191,135.84945c0,0 4.52221,-11.70703 9.43994,-11.70703c4.91773,0 10.10944,11.58938 10.10944,11.58938z"/><path d="M262.14165,136.28084c0,0 4.52221,-11.70703 9.43994,-11.70703c4.91773,0 10.10944,11.58938 10.10944,11.58938z"/><path d="M236.4564,153.83165c0,-5.11442 0,-14.07079 0,-17.01027c0,-1.77289 1.81214,-3.79613 3.75062,-3.79613c5.38433,0 31.03421,0 40.82464,0c2.36905,0 3.80949,2.17936 3.80949,4.04813c0,2.92099 0,11.67661 0,16.75826c0,2.23843 -1.63905,3.76398 -3.43148,3.76398c-5.3115,0 -32.05794,0 -41.58065,0c-2.10853,0 -3.37262,-1.66235 -3.37262,-3.76398z"/></g><path d="M240.68809,144.20623c0,-4.41263 3.57714,-7.98976 7.98976,-7.98976c4.41263,0 7.98976,3.57714 7.98976,7.98976c0,4.41263 -3.57714,7.98976 -7.98976,7.98976c-4.41263,0 -7.98976,-3.57714 -7.98976,-7.98976z" fill="#3b3b3b" stroke="none" stroke-width="0" stroke-linecap="butt"/><path d="M264.62995,144.65804c0,-4.41263 3.57714,-7.98976 7.98976,-7.98976c4.41263,0 7.98976,3.57714 7.98976,7.98976c0,4.41263 -3.57714,7.98976 -7.98976,7.98976c-4.41263,0 -7.98976,-3.57714 -7.98976,-7.98976z" fill="#3b3b3b" stroke="none" stroke-width="0" stroke-linecap="butt"/><path d="M263.82125,153.40965c0,1.35755 -1.71364,0.48584 -3.35295,0.48584c-1.63931,0 -2.87548,0.1844 -2.87548,-1.17315c0,-1.35755 1.1571,-3.34763 2.79641,-3.34763c1.63931,0 3.43202,2.6774 3.43202,4.03494z" fill="#de5757" stroke="none" stroke-width="0" stroke-linecap="butt"/><path d="M248.41754,147.78985v-7.33145" fill="none" stroke="#d4a444" stroke-width="4" stroke-linecap="round"/><path d="M272.91948,147.90822v-7.33145" fill="none" stroke="#d4a444" stroke-width="4" stroke-linecap="round"/></g></g></svg>