<svg version="1.1" xmlns="http://www.w3.org/2000/svg" xmlns:xlink="http://www.w3.org/1999/xlink" width="105.69562" height="80.48374" viewBox="0,0,105.69562,80.48374"><g transform="translate(-12.54389,-10.53765)"><g data-paper-data="{&quot;isPaintingLayer&quot;:true}" fill-rule="nonzero" stroke-linejoin="miter" stroke-miterlimit="10" stroke-dasharray="" stroke-dashoffset="0" style="mix-blend-mode: normal"><path d="M14.32145,89.79448v-78.16949h103.14029v78.16949z" fill="#ffffff" stroke="none" stroke-width="NaN" stroke-linecap="butt"/><path d="M23.34711,29.72106c0,-1.9167 1.40146,-3.47049 3.13024,-3.47049c1.72878,0 3.13024,1.55379 3.13024,3.47049c0,1.9167 -6.26048,1.9167 -6.26048,0z" fill="#6bd6c7" stroke="none" stroke-width="0" stroke-linecap="butt"/><path d="M47.01538,33.60045c0.75667,-1.78863 2.12456,-5.15712 3.81942,-5.15712c2.86037,0 1.8511,2.60743 1.30282,6.40555c-0.97712,6.76885 3.07751,7.2741 -0.75998,7.2741c-3.83749,0 -5.31884,-6.26136 -4.36226,-8.52254z" fill="#db8080" stroke="none" stroke-width="0" stroke-linecap="butt"/><path d="M99.18897,86.45632c2.7582,0 4.99417,0.44706 4.99417,2.60565c0,2.15859 -2.23596,1.95424 -4.99417,1.95424c-2.7582,0 -4.99417,0.20435 -4.99417,-1.95424c0,-2.15859 2.23596,-2.60565 4.99417,-2.60565z" data-paper-data="{&quot;index&quot;:null}" fill="#64bf55" stroke="none" stroke-width="0" stroke-linecap="butt"/><path d="M91.74283,12.83581c-0.28289,2.23765 -2.84798,6.67887 -7.57307,8.33827c-4.33184,1.52129 -10.58446,-1.98861 -14.14067,-2.89892c-5.93789,-1.51996 -5.66006,-1.68522 -6.73126,-5.87362c-0.21714,-0.84901 28.66214,-1.28328 28.445,0.43427z" fill="#db8080" stroke="none" stroke-width="0" stroke-linecap="butt"/><path d="M83.0699,44.16733l7.95587,0.33653c0,0 3.50083,17.15925 -4.44233,7.09906c-2.14395,-2.71536 -3.51353,-7.43558 -3.51353,-7.43558z" fill="#db8080" stroke="none" stroke-width="0" stroke-linecap="butt"/><path d="M39.42026,78.29754c-1.77875,0 1.07365,-4.42294 -0.03031,-5.53077c-0.96349,-0.96686 -6.21842,0.82728 -6.21842,-0.57685c0,-3.01298 1.94046,-5.92129 5.27161,-5.92129c1.57226,0 5.87717,4.07714 6.19513,6.90697c0.3557,3.16574 -3.45911,5.12194 -5.21802,5.12194z" fill="#db8080" stroke="none" stroke-width="0" stroke-linecap="butt"/><g fill="none" stroke="#4a4a4a" stroke-width="2.5"><path d="M13.79389,89.56137v-77.77373h103.19562v77.77373z" stroke-linecap="butt"/><path d="M81.07567,43.69965h9.69479v28.43804" stroke-linecap="round"/><path d="M59.31626,67.18257h16.58886" stroke-linecap="round"/><path d="M107.46703,28.18799h-8.83303" stroke-linecap="round"/><path d="M58.23906,44.77684l-6.24775,-3.44704v-14.43446" stroke-linecap="round"/><path d="M105.20491,71.59909v-13.46498l5.70915,-3.2316" stroke-linecap="round"/><path d="M31.95542,26.0336v4.73967h-9.69479" stroke-linecap="round"/><path d="M27.64631,72.84048l11.25826,-0.86176v6.83792" stroke-linecap="round"/><path d="M40.11015,56.64463l-6.62477,-6.62477v-4.30879" stroke-linecap="round"/></g></g></g></svg>