<svg version="1.1" xmlns="http://www.w3.org/2000/svg" xmlns:xlink="http://www.w3.org/1999/xlink" width="490.5" height="446.07357" viewBox="0,0,490.5,446.07357"><g transform="translate(5.25,79.82356)"><g data-paper-data="{&quot;isPaintingLayer&quot;:true}" fill-rule="nonzero" stroke-linejoin="miter" stroke-miterlimit="10" stroke-dasharray="" stroke-dashoffset="0" style="mix-blend-mode: normal"><g><path d="M225.56382,-7.8133c7.41807,-2.74366 15.53056,0.2162 18.11976,6.61105c2.58921,6.39483 -1.32536,13.80306 -8.74342,16.54672c-7.41807,2.74366 -16.79441,-20.41411 -9.37634,-23.15777z" fill="#6bd6c7" stroke="none" stroke-width="0" stroke-linecap="butt"/><path d="M236.47435,15.47343c0,0 -2.9131,-7.19478 -4.48434,-11.07545c-1.74066,-4.29911 -5.09584,-12.58575 -5.09584,-12.58575" fill="none" stroke="#f1f1f1" stroke-width="6" stroke-linecap="round"/></g><path d="M176.89063,101.125c0,17.39697 -15.43146,30.5 -32,30.5c-16.56854,0 -23,-10.5 -23,-10.5c0,0 11.3637,-1.70435 19.81568,-12.24151c3.92629,-4.89494 8.75381,-16.20871 14.31027,-23.8907c4.93919,-6.82858 10.87405,-10.36779 10.87405,-10.36779c0,0 10,9.10303 10,26.5z" fill="#db8080" stroke="none" stroke-width="0" stroke-linecap="butt"/><path d="M88.93487,302.17246c-21.97529,0 -39.78979,-15.46164 -39.78979,-34.53453c0,-19.0729 6.75676,-42.54054 6.75676,-42.54054c0,0 2.95233,19.48765 13.96566,27.34693c11.82734,8.44017 23.47694,5.68647 34.30315,10.40558c3.9842,1.7367 24.58711,18.92661 24.58711,18.92661c0,0 -24.44297,20.39595 -39.82288,20.39595z" fill="#64bf55" stroke="none" stroke-width="0" stroke-linecap="butt"/><path d="M478.07001,360.98028l-473.46847,-4.003c0,0 -21.29058,-28.91339 23.49651,-34.7966c9.43754,-1.23971 30.41811,10.02183 45.57256,10.02183c22.87086,0 45.77908,0.74533 69.03448,-3.20654c17.90675,-3.04296 34.1856,-11.31592 62.09997,-9.80766c11.81008,0.63812 29.55681,9.91267 47.413,12.43988c21.05368,2.97975 29.33189,-7.99873 50.23538,-3.50987c18.06509,3.87933 50.82339,11.78628 80.41871,13.47748c21.24847,1.21422 50.8665,-12.68568 62.24559,-11.03312c38.32217,5.56543 27.95226,29.41761 27.95226,29.41761z" fill="#db8080" stroke="none" stroke-width="0" stroke-linecap="butt"/><path d="M342.94088,299.92019c0,0 1.91047,-17.90868 17.84896,-36.92845c13.86091,-16.54054 29.63083,-20.3955 37.44849,-45.59909c9.1919,-29.63407 1.00885,-48.85383 1.00885,-48.85383c0,0 53.3033,12.56913 47.2973,78.82883c-1.25164,37.7104 -27.58415,62.31231 -65.31531,62.31231c-37.73116,0 -38.28829,-9.75976 -38.28829,-9.75976z" fill="#db8080" stroke="none" stroke-width="0" stroke-linecap="butt"/><g fill="none" stroke="#4a4a4a" stroke-linecap="butt"><path d="M0.5,360.50001v-434.57357h479v434.57357z" stroke-width="11.5"/><path d="M137.16786,64.19977c4.83743,-1.08507 9.98531,-1.14302 15.14337,0.01623c18.64987,4.19144 30.37074,22.70798 26.17931,41.35785c-4.19144,18.64987 -22.70798,30.37074 -41.35785,26.17931c-10.53957,-2.3687 -18.86624,-9.31241 -23.35862,-18.26974" stroke-width="9"/><path d="M353.8407,37.69287c13.11374,1.88873 25.20457,9.72271 32.03068,22.25208c11.01095,20.21069 4.32867,45.30668 -14.80085,57.48439" stroke-width="9"/><path d="M319.75928,114.1343c-4.0751,-3.40597 -7.59063,-7.62069 -10.28557,-12.56727c-2.21272,-4.06146 -3.71092,-8.32018 -4.53719,-12.63172" stroke-width="9"/><path d="M347.17786,167.45745c6.39122,-2.59237 13.2449,-4.35122 20.44239,-5.12912c41.73061,-4.51023 79.21623,25.66284 83.72646,67.39346c4.51024,41.73061 -25.66284,79.21623 -67.39346,83.72646c-22.74758,2.45855 -44.23381,-5.3887 -59.80514,-19.79599" stroke-width="9"/><path d="M138.68556,254.4301c-0.41958,13.2837 -6.60312,26.40084 -18.0234,35.35686c-20.20829,15.84775 -49.1612,12.66514 -64.66814,-7.10856c-15.50694,-19.7737 -11.69575,-48.65059 8.51254,-64.49835c5.58909,-4.38308 11.84709,-7.31046 18.30452,-8.83376" data-paper-data="{&quot;index&quot;:null}" stroke-width="9"/><path d="M283.49304,207.40643c-2.68313,19.76656 -19.62737,35.00125 -40.12986,35.00125c-22.36753,0 -40.5,-18.13246 -40.5,-40.50001c0,-0.93629 0.03177,-1.86519 0.0943,-2.78561" stroke-width="9"/><path d="M264.19583,19.96832c-4.17576,2.79582 -9.19761,4.42636 -14.60029,4.42636c-14.51199,0 -26.27628,-11.76429 -26.27628,-26.27628c0,-14.51199 11.76429,-26.27628 26.27628,-26.27628c0.97602,0 1.9396,0.05321 2.88802,0.1569" stroke-width="9"/></g></g></g></svg>